<svg xmlns="http://www.w3.org/2000/svg" fill="none" viewBox="0 0 512 512"><rect width="512" height="512" fill="url(#a)" rx="128"/><g filter="url(#b)"><path fill="#fff" d="M150 135.1c0-7.98 3.2-15.64 8.87-21.28a30.4 30.4 0 0 1 21.42-8.82H331.7c8.04 0 15.74 3.17 21.42 8.82A30 30 0 0 1 362 135.1v15.05c0 21.69-9.22 44.9-21.2 64.96a215 215 0 0 1-31.3 40.39 215 215 0 0 1 31.27 40.4c12 20.04 21.23 43.28 21.23 64.95v15.05c0 7.98-3.2 15.64-8.87 21.28a30.4 30.4 0 0 1-21.42 8.82H180.3a30.4 30.4 0 0 1-21.42-8.82A30 30 0 0 1 150 375.9v-15.05c0-21.69 9.22-44.9 21.2-64.96a215 215 0 0 1 31.3-40.39 216 216 0 0 1-31.27-40.4c-12-20.04-21.23-43.28-21.23-64.95z"/></g><defs><filter id="b" width="230.8" height="319.8" x="142.6" y="99.6" color-interpolation-filters="sRGB" filterUnits="userSpaceOnUse"><feFlood flood-opacity="0" result="BackgroundImageFix"/><feColorMatrix in="SourceAlpha" result="hardAlpha" values="0 0 0 0 0 0 0 0 0 0 0 0 0 0 0 0 0 0 127 0"/><feOffset dx="2" dy="4"/><feGaussianBlur stdDeviation="4.7"/><feComposite in2="hardAlpha" operator="out"/><feColorMatrix values="0 0 0 0 0 0 0 0 0 0 0 0 0 0 0 0 0 0 0.25 0"/><feBlend in2="BackgroundImageFix" result="effect1_dropShadow_1_2"/><feBlend in="SourceGraphic" in2="effect1_dropShadow_1_2" result="shape"/></filter><linearGradient id="a" x1="61" x2="469" y1="36" y2="491" gradientUnits="userSpaceOnUse"><stop stop-color="#fa7c40"/><stop offset="1" stop-color="#ec364f"/></linearGradient></defs></svg>